HIERARCHY
ROOT joint_0
{
	OFFSET 0.000000 0.000000 0.000000
	CHANNELS 6 Xposition Yposition Zposition Zrotation Yrotation Xrotation 
	JOINT joint_1
	{
		OFFSET 7.683380 1.521202 101.454956
		CHANNELS 3 Zrotation Yrotation Xrotation
		JOINT joint_2
		{
			OFFSET -4.816528 0.859650 92.807007
			CHANNELS 3 Zrotation Yrotation Xrotation
			JOINT joint_3
			{
				OFFSET -7.237778 1.114670 92.543091
				CHANNELS 3 Zrotation Yrotation Xrotation
				JOINT joint_4
				{
					OFFSET 0.479660 2.971886 127.844971
					CHANNELS 3 Zrotation Yrotation Xrotation
					JOINT joint_5
					{
						OFFSET 15.211349 9.937172 76.390015
						CHANNELS 3 Zrotation Yrotation Xrotation
						End Site
						{
							OFFSET 0.000000 0.000000 0.000000
						}
					}
				}
				JOINT joint_6
				{
					OFFSET 2.887054 -26.053230 72.331909
					CHANNELS 3 Zrotation Yrotation Xrotation
					JOINT joint_7
					{
						OFFSET 10.229767 -132.540291 -13.979004
						CHANNELS 3 Zrotation Yrotation Xrotation
						JOINT joint_8
						{
							OFFSET 17.695633 -10.988861 -262.204956
							CHANNELS 3 Zrotation Yrotation Xrotation
							JOINT joint_9
							{
								OFFSET 11.003433 -0.031860 -255.909973
								CHANNELS 3 Zrotation Yrotation Xrotation
								End Site
								{
									OFFSET 0.000000 0.000000 0.000000
								}
							}
						}
					}
				}
				JOINT joint_10
				{
					OFFSET -2.092239 29.348854 71.062988
					CHANNELS 3 Zrotation Yrotation Xrotation
					JOINT joint_11
					{
						OFFSET -11.853149 131.935837 -17.877075
						CHANNELS 3 Zrotation Yrotation Xrotation
						JOINT joint_12
						{
							OFFSET 14.084503 10.700203 -262.437012
							CHANNELS 3 Zrotation Yrotation Xrotation
							JOINT joint_13
							{
								OFFSET 48.202347 13.087273 -251.229919
								CHANNELS 3 Zrotation Yrotation Xrotation
								End Site
								{
									OFFSET 0.000000 0.000000 0.000000
								}
							}
						}
					}
				}
			}
		}
	}
	JOINT joint_14
	{
		OFFSET 4.150818 -83.296913 -102.580017
		CHANNELS 3 Zrotation Yrotation Xrotation
		JOINT joint_15
		{
			OFFSET -36.423187 -7.342392 -449.858948
			CHANNELS 3 Zrotation Yrotation Xrotation
			JOINT joint_16
			{
				OFFSET -41.100235 -7.280350 -426.202026
				CHANNELS 3 Zrotation Yrotation Xrotation
				JOINT joint_17
				{
					OFFSET 175.972961 13.159744 -75.358000
					CHANNELS 3 Zrotation Yrotation Xrotation
					End Site
					{
						OFFSET 0.000000 0.000000 0.000000
					}
				}
			}
		}
	}
	JOINT joint_18
	{
		OFFSET -9.062592 83.477568 -102.093018
		CHANNELS 3 Zrotation Yrotation Xrotation
		JOINT joint_19
		{
			OFFSET -39.145699 -6.092751 -449.645996
			CHANNELS 3 Zrotation Yrotation Xrotation
			JOINT joint_20
			{
				OFFSET -32.926178 -7.016375 -426.911980
				CHANNELS 3 Zrotation Yrotation Xrotation
				JOINT joint_21
				{
					OFFSET 176.289299 16.780729 -73.883997
					CHANNELS 3 Zrotation Yrotation Xrotation
					End Site
					{
						OFFSET 0.000000 0.000000 0.000000
					}
				}
			}
		}
	}
}
MOTION
Frames: 15
Frame Time: 0.016667
150.327957 -76.672379 1071.826050 -0.772794 -1.560385 0.380562 -0.282392 1.417927 2.651214 -0.439045 -0.294703 -0.631142 -0.362484 0.302526 0.430287 -0.766055 0.936099 3.226262 0.000000 0.000000 0.000000 1.729521 0.252713 2.734955 -0.194768 -0.073704 -4.100334 -0.051048 1.284813 -1.115581 0.000000 0.000000 0.000000 -2.333204 -0.744010 -2.425107 -0.294230 -0.141459 1.197933 -0.252328 8.092230 -4.256789 0.000000 0.000000 0.000000 -1.785547 0.244337 0.095460 -1.810835 6.561890 -0.870925 -1.730278 -3.919630 -0.444296 0.000000 0.000000 0.000000 1.391131 -0.510658 0.601759 1.358090 6.160042 -0.050745 1.456774 -2.475814 0.843887 0.000000 0.000000 0.000000 
150.342133 -76.590965 1071.807983 -0.765228 -1.559405 0.377951 -0.287823 1.425631 2.649107 -0.444312 -0.297155 -0.633005 -0.367551 0.304864 0.431690 -0.765349 0.936528 3.222648 0.000000 0.000000 0.000000 1.744180 0.254567 2.742201 -0.195767 -0.071639 -4.112211 -0.050922 1.284049 -1.112476 0.000000 0.000000 0.000000 -2.326823 -0.743954 -2.437072 -0.295003 -0.139876 1.213642 -0.254827 8.089053 -4.269959 0.000000 0.000000 0.000000 -1.786910 0.236820 0.092270 -1.812977 6.577510 -0.869082 -1.732045 -3.928605 -0.444362 0.000000 0.000000 0.000000 1.386991 -0.528001 0.601498 1.353689 6.193552 -0.055782 1.453012 -2.488725 0.843533 0.000000 0.000000 0.000000 
150.357681 -76.511314 1071.790039 -0.758642 -1.557088 0.375542 -0.291526 1.432195 2.645497 -0.447747 -0.298563 -0.633981 -0.370887 0.306682 0.432472 -0.765018 0.938533 3.219838 0.000000 0.000000 0.000000 1.755026 0.257069 2.751654 -0.196813 -0.069545 -4.124731 -0.050808 1.283039 -1.109641 0.000000 0.000000 0.000000 -2.323876 -0.744413 -2.447659 -0.295780 -0.138588 1.227951 -0.257206 8.085529 -4.282112 0.000000 0.000000 0.000000 -1.787776 0.227758 0.088420 -1.814788 6.593254 -0.866202 -1.733393 -3.937448 -0.444261 0.000000 0.000000 0.000000 1.383232 -0.544792 0.600537 1.349583 6.223306 -0.059866 1.449504 -2.499971 0.843129 0.000000 0.000000 0.000000 
150.370911 -76.440300 1071.776001 -0.756551 -1.554220 0.373643 -0.291069 1.440490 2.636377 -0.446539 -0.300758 -0.631397 -0.370094 0.309625 0.430605 -0.765118 0.940808 3.218967 0.000000 0.000000 0.000000 1.759577 0.260209 2.766775 -0.197944 -0.067997 -4.138424 -0.050680 1.281536 -1.106456 0.000000 0.000000 0.000000 -2.327470 -0.746750 -2.455171 -0.296198 -0.138788 1.239135 -0.258707 8.082664 -4.289126 0.000000 0.000000 0.000000 -1.786773 0.215161 0.083678 -1.815027 6.613748 -0.862234 -1.733122 -3.946575 -0.443448 0.000000 0.000000 0.000000 1.380742 -0.557306 0.599156 1.346880 6.243561 -0.063733 1.447090 -2.506310 0.842718 0.000000 0.000000 0.000000 
150.383347 -76.375565 1071.762939 -0.757209 -1.550571 0.371845 -0.287385 1.450311 2.624286 -0.441871 -0.304586 -0.627736 -0.366023 0.313946 0.428049 -0.765406 0.943214 3.218890 0.000000 0.000000 0.000000 1.758743 0.263940 2.785667 -0.199151 -0.066789 -4.153212 -0.050540 1.279886 -1.102953 0.000000 0.000000 0.000000 -2.336645 -0.750411 -2.459754 -0.296504 -0.140049 1.247500 -0.259753 8.079990 -4.293303 0.000000 0.000000 0.000000 -1.784583 0.199970 0.078586 -1.814257 6.637009 -0.857512 -1.731805 -3.955832 -0.442177 0.000000 0.000000 0.000000 1.378937 -0.567164 0.597574 1.344928 6.257148 -0.067089 1.445248 -2.509670 0.842264 0.000000 0.000000 0.000000 
150.402649 -76.309441 1071.750000 -0.758500 -1.545612 0.369848 -0.283739 1.455712 2.613631 -0.437456 -0.305284 -0.625375 -0.362001 0.315527 0.425821 -0.766074 0.948392 3.218939 0.000000 0.000000 0.000000 1.756672 0.268764 2.804060 -0.200287 -0.064468 -4.166369 -0.050443 1.277611 -1.100526 0.000000 0.000000 0.000000 -2.344272 -0.752734 -2.465134 -0.296743 -0.140142 1.255447 -0.260725 8.076841 -4.296711 0.000000 0.000000 0.000000 -1.782185 0.185207 0.073509 -1.813258 6.657307 -0.852347 -1.730237 -3.964114 -0.440876 0.000000 0.000000 0.000000 1.377487 -0.576358 0.595907 1.343361 6.267318 -0.070248 1.443702 -2.511761 0.841816 0.000000 0.000000 0.000000 
150.434692 -76.240746 1071.738037 -0.758794 -1.538187 0.367331 -0.281759 1.453580 2.604684 -0.434836 -0.305746 -0.622452 -0.359793 0.316520 0.423794 -0.767042 0.955525 3.219254 0.000000 0.000000 0.000000 1.753348 0.274582 2.819951 -0.201220 -0.060906 -4.176737 -0.050418 1.275688 -1.099883 0.000000 0.000000 0.000000 -2.349224 -0.751880 -2.473468 -0.296925 -0.137045 1.264617 -0.261934 8.071401 -4.300726 0.000000 0.000000 0.000000 -1.780356 0.171573 0.069097 -1.812646 6.671638 -0.847352 -1.729079 -3.970419 -0.439902 0.000000 0.000000 0.000000 1.375632 -0.586452 0.594779 1.341487 6.275168 -0.073800 1.441766 -2.512561 0.841082 0.000000 0.000000 0.000000 
150.478699 -76.170654 1071.727051 -0.758619 -1.528626 0.364247 -0.280906 1.444555 2.597476 -0.433544 -0.304459 -0.620119 -0.358789 0.316215 0.422274 -0.768120 0.964474 3.218980 0.000000 0.000000 0.000000 1.749364 0.281582 2.833931 -0.201974 -0.055895 -4.184335 -0.050464 1.273787 -1.100984 0.000000 0.000000 0.000000 -2.351280 -0.748475 -2.483624 -0.297083 -0.131617 1.273946 -0.263274 8.064294 -4.304784 0.000000 0.000000 0.000000 -1.778768 0.158522 0.065342 -1.812150 6.681557 -0.842210 -1.728032 -3.975158 -0.439095 0.000000 0.000000 0.000000 1.373718 -0.596560 0.594308 1.339686 6.279542 -0.077656 1.439784 -2.511768 0.840180 0.000000 0.000000 0.000000 
150.523682 -76.100365 1071.713013 -0.757810 -1.520686 0.361492 -0.280274 1.438017 2.591065 -0.432536 -0.304460 -0.618901 -0.358017 0.316257 0.420550 -0.769488 0.974071 3.219749 0.000000 0.000000 0.000000 1.743568 0.288274 2.849431 -0.202861 -0.051608 -4.193471 -0.050512 1.270251 -1.102236 0.000000 0.000000 0.000000 -2.354218 -0.745821 -2.494546 -0.297104 -0.126599 1.284762 -0.264495 8.058499 -4.308927 0.000000 0.000000 0.000000 -1.777439 0.150059 0.061159 -1.811807 6.686412 -0.836904 -1.727123 -3.979565 -0.438376 0.000000 0.000000 0.000000 1.371520 -0.605580 0.593389 1.337551 6.285384 -0.081517 1.437513 -2.511542 0.839212 0.000000 0.000000 0.000000 
150.562012 -76.032448 1071.692993 -0.754616 -1.517267 0.359855 -0.281535 1.439651 2.582033 -0.433130 -0.305794 -0.616639 -0.358923 0.318171 0.419409 -0.770749 0.980556 3.222034 0.000000 0.000000 0.000000 1.740023 0.292478 2.867428 -0.204153 -0.050124 -4.207833 -0.050464 1.263777 -1.101339 0.000000 0.000000 0.000000 -2.356383 -0.746507 -2.506939 -0.296929 -0.124623 1.298287 -0.265432 8.056588 -4.313548 0.000000 0.000000 0.000000 -1.777236 0.151747 0.055835 -1.812391 6.681167 -0.831127 -1.727078 -3.983368 -0.438076 0.000000 0.000000 0.000000 1.368250 -0.613214 0.591487 1.334194 6.297505 -0.085480 1.434219 -2.515046 0.838169 0.000000 0.000000 0.000000 
150.600525 -75.965508 1071.667969 -0.749335 -1.516405 0.358979 -0.283617 1.445154 2.573029 -0.434586 -0.308611 -0.616245 -0.360532 0.321934 0.418899 -0.772157 0.986044 3.225705 0.000000 0.000000 0.000000 1.734478 0.295394 2.887288 -0.205661 -0.050460 -4.224840 -0.050384 1.254740 -1.099830 0.000000 0.000000 0.000000 -2.360032 -0.748957 -2.519663 -0.296641 -0.124017 1.313506 -0.266245 8.056801 -4.318728 0.000000 0.000000 0.000000 -1.777821 0.161400 0.049568 -1.813608 6.666341 -0.824682 -1.727595 -3.985773 -0.438128 0.000000 0.000000 0.000000 1.364016 -0.620025 0.588759 1.329739 6.313383 -0.089268 1.429970 -2.520482 0.836910 0.000000 0.000000 0.000000 
150.631989 -75.898972 1071.640015 -0.746484 -1.517285 0.358129 -0.285967 1.454167 2.563310 -0.436119 -0.311316 -0.613187 -0.362557 0.325300 0.416698 -0.773574 0.990765 3.229980 0.000000 0.000000 0.000000 1.732080 0.297388 2.907723 -0.207194 -0.051500 -4.242816 -0.050310 1.245929 -1.098459 0.000000 0.000000 0.000000 -2.361374 -0.752276 -2.532203 -0.296292 -0.124684 1.327810 -0.266863 8.056504 -4.322730 0.000000 0.000000 0.000000 -1.777807 0.167964 0.043552 -1.814324 6.660479 -0.819215 -1.727693 -3.992237 -0.437690 0.000000 0.000000 0.000000 1.360469 -0.625394 0.585401 1.325842 6.329734 -0.092028 1.426336 -2.525294 0.835848 0.000000 0.000000 0.000000 
150.651688 -75.829704 1071.612061 -0.750600 -1.518495 0.356001 -0.286444 1.465758 2.557862 -0.436125 -0.315185 -0.612342 -0.362761 0.330365 0.416488 -0.773817 0.993654 3.229503 0.000000 0.000000 0.000000 1.731854 0.298299 2.925554 -0.208539 -0.053121 -4.259597 -0.050332 1.237985 -1.099243 0.000000 0.000000 0.000000 -2.360784 -0.756783 -2.547250 -0.295988 -0.126687 1.340926 -0.267482 8.052068 -4.324887 0.000000 0.000000 0.000000 -1.775346 0.161467 0.039450 -1.812849 6.678682 -0.816135 -1.725856 -4.005738 -0.435882 0.000000 0.000000 0.000000 1.358658 -0.629458 0.581863 1.323512 6.343275 -0.092314 1.424283 -2.525887 0.835041 0.000000 0.000000 0.000000 
150.660782 -75.758499 1071.581055 -0.760250 -1.521109 0.353077 -0.285329 1.481833 2.554889 -0.434629 -0.320150 -0.611004 -0.361625 0.335031 0.414830 -0.773974 0.996048 3.228922 0.000000 0.000000 0.000000 1.732415 0.298263 2.942796 -0.209723 -0.055533 -4.275839 -0.050416 1.231609 -1.101374 0.000000 0.000000 0.000000 -2.359851 -0.762121 -2.561866 -0.295662 -0.129787 1.352049 -0.267919 8.045723 -4.325299 0.000000 0.000000 0.000000 -1.771122 0.146675 0.036479 -1.809823 6.714450 -0.814550 -1.722618 -4.026036 -0.432956 0.000000 0.000000 0.000000 1.358129 -0.631374 0.578064 1.322371 6.354919 -0.091061 1.423407 -2.524110 0.834500 0.000000 0.000000 0.000000 
150.670273 -75.689255 1071.551025 -0.769003 -1.523756 0.350987 -0.284924 1.496254 2.550665 -0.433786 -0.324307 -0.609449 -0.361140 0.340766 0.413461 -0.774015 0.996052 3.229321 0.000000 0.000000 0.000000 1.732516 0.298334 2.960400 -0.211031 -0.057956 -4.292789 -0.050421 1.224251 -1.101773 0.000000 0.000000 0.000000 -2.358869 -0.767523 -2.575545 -0.295424 -0.133179 1.361771 -0.268396 8.038423 -4.325695 0.000000 0.000000 0.000000 -1.767140 0.130407 0.032650 -1.807191 6.753352 -0.812866 -1.719744 -4.046860 -0.430143 0.000000 0.000000 0.000000 1.357926 -0.634170 0.573339 1.321398 6.368515 -0.089359 1.422789 -2.522142 0.834046 0.000000 0.000000 0.000000 
